<mxfile host="app.diagrams.net" agent="Mozilla/5.0 (Windows NT 10.0; Win64; x64) AppleWebKit/537.36 (KHTML, like Gecko) Chrome/135.0.0.0 Safari/537.36" version="26.2.13">
  <diagram name="第 1 页" id="MGNUn85jjo4Qp-0RZlL9">
    <mxGraphModel dx="1044" dy="562" grid="1" gridSize="10" guides="1" tooltips="1" connect="1" arrows="1" fold="1" page="1" pageScale="1" pageWidth="827" pageHeight="1169" math="0" shadow="0">
      <root>
        <mxCell id="0" />
        <mxCell id="1" parent="0" />
        <mxCell id="aJ3NnQ6fRwIkyQ2HddgB-1" value="&lt;span style=&quot;font-size: 18px;&quot;&gt;变更工作负责人&lt;/span&gt;" style="swimlane;html=1;childLayout=stackLayout;startSize=20;rounded=0;shadow=0;labelBackgroundColor=none;strokeWidth=1;fontFamily=Verdana;fontSize=8;align=center;" vertex="1" parent="1">
          <mxGeometry x="70" y="40" width="480" height="800" as="geometry" />
        </mxCell>
        <mxCell id="aJ3NnQ6fRwIkyQ2HddgB-2" value="接收请求" style="swimlane;html=1;startSize=20;" vertex="1" parent="aJ3NnQ6fRwIkyQ2HddgB-1">
          <mxGeometry y="20" width="160" height="780" as="geometry">
            <mxRectangle y="20" width="40" height="730" as="alternateBounds" />
          </mxGeometry>
        </mxCell>
        <mxCell id="aJ3NnQ6fRwIkyQ2HddgB-3" style="edgeStyle=orthogonalEdgeStyle;rounded=0;orthogonalLoop=1;jettySize=auto;html=1;exitX=0.5;exitY=1;exitDx=0;exitDy=0;entryX=0.5;entryY=0;entryDx=0;entryDy=0;" edge="1" parent="aJ3NnQ6fRwIkyQ2HddgB-2" source="aJ3NnQ6fRwIkyQ2HddgB-4" target="aJ3NnQ6fRwIkyQ2HddgB-88">
          <mxGeometry relative="1" as="geometry">
            <mxPoint x="80" y="160" as="targetPoint" />
          </mxGeometry>
        </mxCell>
        <mxCell id="aJ3NnQ6fRwIkyQ2HddgB-4" value="&lt;font style=&quot;font-size: 12px;&quot;&gt;开始&lt;/font&gt;" style="rounded=1;whiteSpace=wrap;html=1;shadow=0;labelBackgroundColor=none;strokeWidth=1;fontFamily=Verdana;fontSize=8;align=center;" vertex="1" parent="aJ3NnQ6fRwIkyQ2HddgB-2">
          <mxGeometry x="30" y="70" width="100" height="60" as="geometry" />
        </mxCell>
        <mxCell id="aJ3NnQ6fRwIkyQ2HddgB-98" style="edgeStyle=orthogonalEdgeStyle;rounded=0;orthogonalLoop=1;jettySize=auto;html=1;exitX=0.5;exitY=1;exitDx=0;exitDy=0;" edge="1" parent="aJ3NnQ6fRwIkyQ2HddgB-2" source="aJ3NnQ6fRwIkyQ2HddgB-88">
          <mxGeometry relative="1" as="geometry">
            <mxPoint x="240" y="670" as="targetPoint" />
            <Array as="points">
              <mxPoint x="80" y="670" />
              <mxPoint x="241" y="670" />
            </Array>
          </mxGeometry>
        </mxCell>
        <mxCell id="aJ3NnQ6fRwIkyQ2HddgB-100" value="&lt;font style=&quot;font-size: 10px;&quot;&gt;是&lt;/font&gt;" style="edgeLabel;html=1;align=center;verticalAlign=middle;resizable=0;points=[];" vertex="1" connectable="0" parent="aJ3NnQ6fRwIkyQ2HddgB-98">
          <mxGeometry x="-0.9015" relative="1" as="geometry">
            <mxPoint as="offset" />
          </mxGeometry>
        </mxCell>
        <mxCell id="aJ3NnQ6fRwIkyQ2HddgB-88" value="&lt;span style=&quot;font-size: 12px;&quot;&gt;是否来源&lt;/span&gt;&lt;div&gt;&lt;span style=&quot;font-size: 12px;&quot;&gt;变更申请单&lt;/span&gt;&lt;/div&gt;" style="rhombus;whiteSpace=wrap;html=1;rounded=0;shadow=0;labelBackgroundColor=none;strokeWidth=1;fontFamily=Verdana;fontSize=8;align=center;" vertex="1" parent="aJ3NnQ6fRwIkyQ2HddgB-2">
          <mxGeometry x="30" y="170" width="100" height="75" as="geometry" />
        </mxCell>
        <mxCell id="aJ3NnQ6fRwIkyQ2HddgB-11" value="非来源变更申请单" style="swimlane;html=1;startSize=20;" vertex="1" parent="aJ3NnQ6fRwIkyQ2HddgB-1">
          <mxGeometry x="160" y="20" width="160" height="780" as="geometry" />
        </mxCell>
        <mxCell id="aJ3NnQ6fRwIkyQ2HddgB-12" style="edgeStyle=orthogonalEdgeStyle;rounded=0;orthogonalLoop=1;jettySize=auto;html=1;exitX=0.5;exitY=1;exitDx=0;exitDy=0;" edge="1" parent="aJ3NnQ6fRwIkyQ2HddgB-11" source="aJ3NnQ6fRwIkyQ2HddgB-13" target="aJ3NnQ6fRwIkyQ2HddgB-15">
          <mxGeometry relative="1" as="geometry" />
        </mxCell>
        <mxCell id="aJ3NnQ6fRwIkyQ2HddgB-13" value="&lt;span style=&quot;font-size: 12px;&quot;&gt;更新工作票主记录&lt;/span&gt;" style="whiteSpace=wrap;html=1;fontSize=8;fontFamily=Verdana;rounded=0;shadow=0;labelBackgroundColor=none;strokeWidth=1;" vertex="1" parent="aJ3NnQ6fRwIkyQ2HddgB-11">
          <mxGeometry x="30" y="160" width="100" height="60" as="geometry" />
        </mxCell>
        <mxCell id="aJ3NnQ6fRwIkyQ2HddgB-14" style="edgeStyle=orthogonalEdgeStyle;rounded=0;orthogonalLoop=1;jettySize=auto;html=1;exitX=0.5;exitY=1;exitDx=0;exitDy=0;entryX=0.5;entryY=0;entryDx=0;entryDy=0;" edge="1" parent="aJ3NnQ6fRwIkyQ2HddgB-11" source="aJ3NnQ6fRwIkyQ2HddgB-15" target="aJ3NnQ6fRwIkyQ2HddgB-17">
          <mxGeometry relative="1" as="geometry" />
        </mxCell>
        <mxCell id="aJ3NnQ6fRwIkyQ2HddgB-15" value="&lt;span style=&quot;font-size: 12px;&quot;&gt;通过适配服务向安检发mq消息通知&lt;/span&gt;&lt;span style=&quot;font-size: 12px;&quot;&gt;工作票负责人变更&lt;/span&gt;" style="whiteSpace=wrap;html=1;fontSize=8;fontFamily=Verdana;rounded=0;shadow=0;labelBackgroundColor=none;strokeWidth=1;" vertex="1" parent="aJ3NnQ6fRwIkyQ2HddgB-11">
          <mxGeometry x="30" y="260" width="100" height="60" as="geometry" />
        </mxCell>
        <mxCell id="aJ3NnQ6fRwIkyQ2HddgB-16" style="edgeStyle=orthogonalEdgeStyle;rounded=0;orthogonalLoop=1;jettySize=auto;html=1;exitX=0.5;exitY=1;exitDx=0;exitDy=0;" edge="1" parent="aJ3NnQ6fRwIkyQ2HddgB-11" source="aJ3NnQ6fRwIkyQ2HddgB-17" target="aJ3NnQ6fRwIkyQ2HddgB-19">
          <mxGeometry relative="1" as="geometry" />
        </mxCell>
        <mxCell id="aJ3NnQ6fRwIkyQ2HddgB-17" value="&lt;span style=&quot;font-size: 12px;&quot;&gt;通过适配服务向调控云推送&lt;/span&gt;&lt;span style=&quot;font-size: 12px;&quot;&gt;工作票负责人变更数据&lt;/span&gt;" style="whiteSpace=wrap;html=1;fontSize=8;fontFamily=Verdana;rounded=0;shadow=0;labelBackgroundColor=none;strokeWidth=1;" vertex="1" parent="aJ3NnQ6fRwIkyQ2HddgB-11">
          <mxGeometry x="30" y="360" width="100" height="60" as="geometry" />
        </mxCell>
        <mxCell id="aJ3NnQ6fRwIkyQ2HddgB-18" style="edgeStyle=orthogonalEdgeStyle;rounded=0;orthogonalLoop=1;jettySize=auto;html=1;exitX=0.5;exitY=1;exitDx=0;exitDy=0;" edge="1" parent="aJ3NnQ6fRwIkyQ2HddgB-11" source="aJ3NnQ6fRwIkyQ2HddgB-19" target="aJ3NnQ6fRwIkyQ2HddgB-20">
          <mxGeometry relative="1" as="geometry" />
        </mxCell>
        <mxCell id="aJ3NnQ6fRwIkyQ2HddgB-19" value="&lt;span style=&quot;font-size: 12px;&quot;&gt;更新日计划的工作负责人字段&lt;/span&gt;" style="whiteSpace=wrap;html=1;fontSize=8;fontFamily=Verdana;rounded=0;shadow=0;labelBackgroundColor=none;strokeWidth=1;" vertex="1" parent="aJ3NnQ6fRwIkyQ2HddgB-11">
          <mxGeometry x="30" y="464.5" width="100" height="60" as="geometry" />
        </mxCell>
        <mxCell id="aJ3NnQ6fRwIkyQ2HddgB-20" value="&lt;span style=&quot;font-size: 12px;&quot;&gt;更新作业计划负责人&lt;/span&gt;" style="whiteSpace=wrap;html=1;fontSize=8;fontFamily=Verdana;rounded=0;shadow=0;labelBackgroundColor=none;strokeWidth=1;" vertex="1" parent="aJ3NnQ6fRwIkyQ2HddgB-11">
          <mxGeometry x="30" y="570" width="100" height="60" as="geometry" />
        </mxCell>
        <mxCell id="aJ3NnQ6fRwIkyQ2HddgB-21" value="流程数据处理" style="swimlane;html=1;startSize=20;" vertex="1" parent="aJ3NnQ6fRwIkyQ2HddgB-1">
          <mxGeometry x="320" y="20" width="160" height="780" as="geometry" />
        </mxCell>
        <mxCell id="aJ3NnQ6fRwIkyQ2HddgB-94" style="edgeStyle=orthogonalEdgeStyle;rounded=0;orthogonalLoop=1;jettySize=auto;html=1;exitX=0.5;exitY=1;exitDx=0;exitDy=0;entryX=0.5;entryY=0;entryDx=0;entryDy=0;" edge="1" parent="aJ3NnQ6fRwIkyQ2HddgB-21" source="aJ3NnQ6fRwIkyQ2HddgB-92" target="aJ3NnQ6fRwIkyQ2HddgB-93">
          <mxGeometry relative="1" as="geometry" />
        </mxCell>
        <mxCell id="aJ3NnQ6fRwIkyQ2HddgB-92" value="&lt;span style=&quot;font-size: 12px;&quot;&gt;给原负责人插入一条待办&lt;/span&gt;" style="whiteSpace=wrap;html=1;fontSize=8;fontFamily=Verdana;rounded=0;shadow=0;labelBackgroundColor=none;strokeWidth=1;" vertex="1" parent="aJ3NnQ6fRwIkyQ2HddgB-21">
          <mxGeometry x="30" y="160" width="100" height="60" as="geometry" />
        </mxCell>
        <mxCell id="aJ3NnQ6fRwIkyQ2HddgB-96" style="edgeStyle=orthogonalEdgeStyle;rounded=0;orthogonalLoop=1;jettySize=auto;html=1;exitX=0.5;exitY=1;exitDx=0;exitDy=0;entryX=0.5;entryY=0;entryDx=0;entryDy=0;" edge="1" parent="aJ3NnQ6fRwIkyQ2HddgB-21" source="aJ3NnQ6fRwIkyQ2HddgB-93" target="aJ3NnQ6fRwIkyQ2HddgB-95">
          <mxGeometry relative="1" as="geometry" />
        </mxCell>
        <mxCell id="aJ3NnQ6fRwIkyQ2HddgB-93" value="&lt;span style=&quot;font-size: 12px;&quot;&gt;调用bpm接口获取工作票流程任务信息&lt;/span&gt;" style="whiteSpace=wrap;html=1;fontSize=8;fontFamily=Verdana;rounded=0;shadow=0;labelBackgroundColor=none;strokeWidth=1;" vertex="1" parent="aJ3NnQ6fRwIkyQ2HddgB-21">
          <mxGeometry x="30" y="260" width="100" height="60" as="geometry" />
        </mxCell>
        <mxCell id="aJ3NnQ6fRwIkyQ2HddgB-97" style="edgeStyle=orthogonalEdgeStyle;rounded=0;orthogonalLoop=1;jettySize=auto;html=1;exitX=0.5;exitY=1;exitDx=0;exitDy=0;entryX=0.5;entryY=0;entryDx=0;entryDy=0;" edge="1" parent="aJ3NnQ6fRwIkyQ2HddgB-21" source="aJ3NnQ6fRwIkyQ2HddgB-95" target="aJ3NnQ6fRwIkyQ2HddgB-63">
          <mxGeometry relative="1" as="geometry" />
        </mxCell>
        <mxCell id="aJ3NnQ6fRwIkyQ2HddgB-95" value="&lt;span style=&quot;font-size: 12px;&quot;&gt;调用bpm接口修改代办人移除旧负责人添加新负责人&lt;/span&gt;" style="whiteSpace=wrap;html=1;fontSize=8;fontFamily=Verdana;rounded=0;shadow=0;labelBackgroundColor=none;strokeWidth=1;" vertex="1" parent="aJ3NnQ6fRwIkyQ2HddgB-21">
          <mxGeometry x="30" y="360" width="100" height="60" as="geometry" />
        </mxCell>
        <mxCell id="aJ3NnQ6fRwIkyQ2HddgB-63" value="&lt;span style=&quot;font-size: 12px;&quot;&gt;成功返回&lt;/span&gt;" style="whiteSpace=wrap;html=1;fontSize=8;fontFamily=Verdana;rounded=0;shadow=0;labelBackgroundColor=none;strokeWidth=1;" vertex="1" parent="aJ3NnQ6fRwIkyQ2HddgB-21">
          <mxGeometry x="30" y="700" width="100" height="60" as="geometry" />
        </mxCell>
        <mxCell id="aJ3NnQ6fRwIkyQ2HddgB-60" style="edgeStyle=orthogonalEdgeStyle;rounded=0;orthogonalLoop=1;jettySize=auto;html=1;exitX=0.5;exitY=1;exitDx=0;exitDy=0;entryX=0.5;entryY=0;entryDx=0;entryDy=0;" edge="1" parent="aJ3NnQ6fRwIkyQ2HddgB-1" source="aJ3NnQ6fRwIkyQ2HddgB-20" target="aJ3NnQ6fRwIkyQ2HddgB-92">
          <mxGeometry relative="1" as="geometry">
            <mxPoint x="400" y="172.5" as="targetPoint" />
            <Array as="points">
              <mxPoint x="240" y="690" />
              <mxPoint x="310" y="690" />
              <mxPoint x="310" y="140" />
              <mxPoint x="400" y="140" />
            </Array>
          </mxGeometry>
        </mxCell>
        <mxCell id="aJ3NnQ6fRwIkyQ2HddgB-89" style="edgeStyle=orthogonalEdgeStyle;rounded=0;orthogonalLoop=1;jettySize=auto;html=1;exitX=1;exitY=0.5;exitDx=0;exitDy=0;entryX=0.5;entryY=0;entryDx=0;entryDy=0;" edge="1" parent="aJ3NnQ6fRwIkyQ2HddgB-1" source="aJ3NnQ6fRwIkyQ2HddgB-88" target="aJ3NnQ6fRwIkyQ2HddgB-13">
          <mxGeometry relative="1" as="geometry">
            <Array as="points">
              <mxPoint x="150" y="228" />
              <mxPoint x="150" y="140" />
              <mxPoint x="240" y="140" />
            </Array>
          </mxGeometry>
        </mxCell>
        <mxCell id="aJ3NnQ6fRwIkyQ2HddgB-90" value="&lt;font style=&quot;font-size: 10px;&quot;&gt;否&lt;/font&gt;" style="edgeLabel;html=1;align=center;verticalAlign=middle;resizable=0;points=[];" vertex="1" connectable="0" parent="aJ3NnQ6fRwIkyQ2HddgB-89">
          <mxGeometry x="-0.9394" y="-1" relative="1" as="geometry">
            <mxPoint as="offset" />
          </mxGeometry>
        </mxCell>
      </root>
    </mxGraphModel>
  </diagram>
</mxfile>
